<?xml version="1.0" encoding="UTF-8"?>
<svg version="1.1" xmlns="http://www.w3.org/2000/svg" width="512" height="512">
<path d="M0 0 C1.06669965 -0.00644889 2.1333993 -0.01289778 3.23242319 -0.0195421 C4.40341833 -0.01644489 5.57441348 -0.01334769 6.78089333 -0.01015663 C8.0255611 -0.01468774 9.27022887 -0.01921886 10.55261385 -0.02388728 C14.00954161 -0.03437192 17.46626163 -0.03585468 20.92319059 -0.03349853 C24.65061979 -0.03309082 28.3780178 -0.04412501 32.10543251 -0.05361366 C39.40882831 -0.07023454 46.71219183 -0.07572369 54.01560496 -0.07683842 C59.9512948 -0.07778835 65.88697398 -0.08189586 71.82266045 -0.08823967 C88.64658545 -0.10585478 105.47048492 -0.11507808 122.29441921 -0.11357872 C123.65521276 -0.11345885 123.65521276 -0.11345885 125.04349709 -0.11333656 C126.40594954 -0.11321392 126.40594954 -0.11321392 127.79592629 -0.1130888 C142.51917655 -0.11227575 157.24232455 -0.13141759 171.96554522 -0.1596133 C187.07849398 -0.18832729 202.19139283 -0.20215442 217.30436957 -0.20042574 C225.79108855 -0.19976134 234.27770032 -0.20527548 242.76439476 -0.22678185 C249.98967792 -0.24497411 257.21480525 -0.24935712 264.44010137 -0.235763 C268.12696671 -0.22922348 271.81353296 -0.22915122 275.50037003 -0.2464695 C279.49636762 -0.26504707 283.4916698 -0.25267163 287.48768044 -0.23720741 C288.65421414 -0.24749454 289.82074784 -0.25778167 291.02263105 -0.26838052 C297.22410098 -0.21516867 301.10076879 -0.00534324 305.76127052 4.25726891 C308.22910212 7.9590163 308.44199785 10.96220366 307.76127052 15.25726891 C304.76127052 20.75726891 304.76127052 20.75726891 301.76127052 22.25726891 C300.07755846 22.3556526 298.3899527 22.39008011 296.70337391 22.39428329 C295.62610607 22.39935784 294.54883824 22.40443238 293.43892592 22.4096607 C291.64932581 22.41040733 291.64932581 22.41040733 289.82357216 22.41116905 C288.56357346 22.41555131 287.30357476 22.41993356 286.00539428 22.42444861 C282.49648065 22.43643258 278.98758078 22.44206676 275.47865069 22.44662976 C271.69872292 22.45257888 267.91881168 22.46419037 264.13889503 22.47492027 C255.00503926 22.49945892 245.87117801 22.51407295 236.73729941 22.52698034 C234.15869079 22.53069101 231.5800827 22.53466433 229.00147462 22.53873301 C212.99774762 22.56396667 196.9940198 22.58602553 180.99027729 22.59846115 C177.28218711 22.60139097 173.57409696 22.60435262 169.86600685 22.60736656 C168.94434944 22.60811261 168.02269203 22.60885866 167.07310561 22.60962732 C152.13564305 22.62228676 137.19829937 22.65551696 122.26089241 22.69716839 C106.93444595 22.73955531 91.60806041 22.76315237 76.28155547 22.76838171 C67.67239933 22.77179937 59.063429 22.78359623 50.45433044 22.81648445 C43.1239239 22.84444156 35.79374125 22.85550346 28.46328553 22.84428899 C24.72180595 22.83909123 20.98079556 22.84206057 17.2393837 22.86675453 C13.18590101 22.89328543 9.13345749 22.88122507 5.07991982 22.86527061 C3.89354524 22.8791527 2.70717066 22.89303479 1.48484534 22.90733755 C-7.36578541 22.82110668 -7.36578541 22.82110668 -10.45566654 19.85964966 C-13.09215402 16.0116956 -13.66152141 12.87545768 -13.23872948 8.25726891 C-10.14093168 1.94694006 -6.8649589 0.0104928 0 0 Z " fill="#606060" transform="translate(119.23872947692871,297.74273109436035)"/>
<path d="M0 0 C1.07167539 -0.00706559 2.14335079 -0.01413118 3.24750119 -0.02141088 C5.02003602 -0.01778826 5.02003602 -0.01778826 6.82837963 -0.01409245 C8.70635031 -0.02194746 8.70635031 -0.02194746 10.6222598 -0.02996117 C14.10420264 -0.04417119 17.58605635 -0.0458039 21.06802404 -0.04536426 C24.82069623 -0.04700984 28.57333142 -0.06007148 32.325984 -0.07155704 C40.53462456 -0.0944264 48.7432393 -0.10232972 56.9519074 -0.10738349 C62.07592896 -0.11063825 67.19994299 -0.11715938 72.3239603 -0.12438488 C86.50666881 -0.14395329 100.68937032 -0.1603561 114.8720932 -0.16326141 C116.23400608 -0.16354277 116.23400608 -0.16354277 117.62343235 -0.16382981 C119.46411113 -0.16419606 121.30478991 -0.16455976 123.14546869 -0.16492092 C124.51607133 -0.16519514 124.51607133 -0.16519514 125.91436291 -0.16547489 C126.82921128 -0.16565544 127.74405964 -0.16583599 128.68663069 -0.16602201 C143.51343018 -0.16956432 158.34008449 -0.19658915 173.16683362 -0.23397278 C188.38371235 -0.27203351 203.60051901 -0.29141873 218.81744641 -0.29172093 C227.36345375 -0.292306 235.90928791 -0.30083006 244.45525074 -0.32971859 C251.73181621 -0.35420266 259.00814535 -0.36153562 266.28474084 -0.34647106 C269.99799156 -0.33928983 273.71077534 -0.34021095 277.42397404 -0.36288166 C281.44860674 -0.38721856 285.4721719 -0.37287019 289.49683666 -0.35466862 C291.25933324 -0.37446857 291.25933324 -0.37446857 293.05743581 -0.39466852 C301.86237298 -0.30340831 301.86237298 -0.30340831 305.56284904 2.67348289 C308.70450499 6.22165321 309.24731595 8.37042306 309.21245861 13.15459347 C308.57726547 16.87599675 306.51329345 18.66319071 303.85308361 21.26006222 C301.34276949 22.51521928 299.63695927 22.38887299 296.82642174 22.39428329 C295.22097017 22.40097006 295.22097017 22.40097006 293.58308524 22.40779191 C291.80515797 22.40751537 291.80515797 22.40751537 289.99131298 22.40723324 C288.73948139 22.41090993 287.48764979 22.41458661 286.1978839 22.41837472 C282.71177092 22.42841064 279.22567515 22.43211406 275.73954976 22.43476403 C271.98416384 22.43866234 268.22879162 22.44824096 264.47341442 22.45697689 C255.39888068 22.47675409 246.3243458 22.48680883 237.24979588 22.49570468 C232.97924506 22.50008528 228.70869548 22.50545266 224.43814564 22.51069355 C210.24689745 22.52770663 196.05565005 22.54220182 181.86439323 22.54944229 C178.18036619 22.55135227 174.49633915 22.55327259 170.81231213 22.55522823 C169.89663595 22.55571197 168.98095977 22.55619571 168.03753582 22.55669411 C153.19709076 22.56499821 138.35672621 22.59034115 123.51631632 22.62280891 C108.28931013 22.65585163 93.06234489 22.6738885 77.83530265 22.67708653 C69.28206823 22.67925416 60.72895123 22.68803962 52.17575169 22.71354771 C44.89294141 22.73521664 37.61027706 22.74332396 30.3274382 22.73358092 C26.61032667 22.72902517 22.89351648 22.73099585 19.17644596 22.75034237 C15.14935189 22.77112186 11.12293089 22.7610245 7.09580517 22.74780941 C5.91721249 22.75877866 4.73861981 22.7697479 3.5243122 22.78104955 C-4.38488281 22.71809952 -4.38488281 22.71809952 -8.33005524 20.34676552 C-10.9860468 17.29630326 -11.99574004 15.41908089 -12.52191639 11.38506222 C-12.04553137 7.41518708 -10.61651213 5.36469686 -8.14691639 2.26006222 C-4.83918041 0.0549049 -3.84564371 0.00808289 0 0 Z " fill="#606060" transform="translate(118.14691638946533,212.7399377822876)"/>
</svg>
